<svg xmlns="http://www.w3.org/2000/svg" viewBox="0 0 288.8 23.78"><defs><style>.cls-1{fill:#fff;}</style></defs><g id="Capa_2" data-name="Capa 2"><g id="Capa_1-2" data-name="Capa 1"><path class="cls-1" d="M209,11.76q-1,3.06-1.91,6.13c-.47,1.5-.94,3-1.37,4.52a1,1,0,0,1-1.13.86c-1.61-.05-3.23-.06-4.84,0a1.05,1.05,0,0,1-1.22-.91c-.94-3.15-1.93-6.3-2.89-9.45a3.28,3.28,0,0,0-.6-1.28v1.17c0,3.19,0,6.38,0,9.56,0,.62-.09.92-.82.9-2.17-.05-4.33,0-6.5,0-.65,0-.89-.15-.89-.85q0-10.19,0-20.35c0-.61.18-.83.81-.82q5.07,0,10.13,0c.6,0,.81.24,1,.77,1,3.3,2,6.59,3,9.89.1.33.22.67.4,1.23,1.1-3.62,2.19-7,3.12-10.42a1.69,1.69,0,0,1,2-1.48c3,.09,6,.05,9,0,.77,0,1.09.12,1.09,1,0,6.67,0,13.35,0,20,0,.72-.14,1-1,1-2.13-.06-4.26-.05-6.39,0-.7,0-.86-.22-.85-.88,0-3.52,0-7,0-10.56Z"/><path class="cls-1" d="M266.48,12c0,3.4,0,6.81,0,10.21,0,.88-.24,1.12-1.11,1.1-2.09-.06-4.18-.05-6.27,0-.69,0-.86-.21-.85-.87q0-10.11,0-20.22c0-.73.2-1,.93-.94,3.3,0,6.6,0,9.9,0a.91.91,0,0,1,1.06.8c1,3.27,2,6.52,3,9.77.1.33.22.66.34,1a1.88,1.88,0,0,0,.53-1.13c1-3.18,2-6.36,2.88-9.56a1,1,0,0,1,1.22-.91c3.26,0,6.53,0,9.79,0,.71,0,.94.19.93.92q0,10.13,0,20.23c0,.66-.16.9-.85.88-2.16,0-4.33,0-6.49,0-.7,0-.86-.22-.86-.88,0-3.52,0-7,0-10.69a1.48,1.48,0,0,0-.49.91c-1,3.25-2,6.5-3,9.76a1,1,0,0,1-1.21.9c-1.61-.05-3.23-.05-4.84,0-.68,0-.94-.22-1.13-.86-1-3.26-2-6.51-3-9.76-.07-.23-.16-.46-.25-.69Z"/><path class="cls-1" d="M63.08,10.62c0-2.69,0-5.27,0-7.85,0-1.73-.23-1.5,1.53-1.51,1.94,0,3.89,0,5.83,0,.61,0,.83.16.83.8q0,10.23,0,20.45c0,.57-.16.77-.74.77-2.57,0-5.14,0-7.71,0-.65,0-.88-.34-1.13-.81q-2.3-4.2-4.6-8.38c-.46.16-.28.51-.28.75,0,2.46,0,4.91,0,7.37,0,.77-.12,1.11-1,1.08-2.09-.07-4.18,0-6.27,0-.68,0-1-.12-1-.89q0-10.12,0-20.24c0-.65.15-.91.85-.9,2.53,0,5.07,0,7.6,0,.66,0,.89.34,1.14.8,1.35,2.48,2.7,5,4.07,7.42A2.56,2.56,0,0,0,63.08,10.62Z"/><path class="cls-1" d="M233.1,8c0-1.94,0-3.88,0-5.82,0-.75.23-.93.94-.92,2.09,0,4.18.06,6.27,0,.87,0,1,.29,1,1.07,0,3.41,0,6.82,0,10.23,0,2.13.9,3.33,2.49,3.35s2.52-1.21,2.52-3.32c0-3.45,0-6.89,0-10.34,0-.75.19-1,1-1,2.12.05,4.25,0,6.38,0,.68,0,.87.22.87.88,0,3.74,0,7.48,0,11.22a10.07,10.07,0,0,1-8.32,10.18,10.66,10.66,0,0,1-12-5.48,11.46,11.46,0,0,1-1.1-5.22C233.11,11.21,233.1,9.6,233.1,8Z"/><path class="cls-1" d="M166.43,12.17c0-3.3,0-6.6,0-9.9,0-.83.23-1,1.05-1,5,0,10,0,15,0,.75,0,1.05.17,1,1-.06,1.43-.07,2.86,0,4.29.05.92-.32,1.08-1.14,1.07-2.27-.05-4.55,0-6.82,0-.66,0-.9.15-.9.85s.34.75.89.75c2.09,0,4.18,0,6.27,0,.78,0,1.12.15,1.08,1-.07,1.42-.06,2.86,0,4.28,0,.75-.17,1-1,1-2.09-.05-4.18,0-6.27,0-.54,0-1-.05-1,.75s.38.87,1,.86c2.54,0,5.07,0,7.6,0,.67,0,.89.19.88.87q-.08,2.31,0,4.62c0,.65-.24.79-.83.79-5.32,0-10.64,0-16,0-.7,0-.86-.23-.86-.88C166.44,19,166.43,15.57,166.43,12.17Z"/><path class="cls-1" d="M103.33,23.72a13.83,13.83,0,0,1-8.85-2.85c-.68-.55-1-1-.3-1.87a29.37,29.37,0,0,0,1.95-3.06c.3-.51.54-.63,1.08-.23a7.9,7.9,0,0,0,4.17,1.55,2,2,0,0,0,1.28-.17c.6-.39.73-.89.08-1.29a11.57,11.57,0,0,0-1.89-.87A18,18,0,0,1,98,13.57c-4.24-2.65-4.45-8.15-.32-11,3.4-2.33,7.09-2.27,10.82-.84a9.78,9.78,0,0,1,3.15,2c.38.34.53.61.19,1.1-.8,1.18-1.55,2.4-2.3,3.61-.25.41-.46.46-.85.16a6.27,6.27,0,0,0-3.1-1.31,2.48,2.48,0,0,0-1,.06.89.89,0,0,0-.72.74.77.77,0,0,0,.54.76c.7.32,1.41.62,2.12.9a13,13,0,0,1,3.37,1.83,6.37,6.37,0,0,1-.38,10.29A9.85,9.85,0,0,1,103.33,23.72Z"/><path class="cls-1" d="M75,12.2c0-3.34,0-6.67,0-10,0-.7.16-1,.91-.95,2.16.05,4.33,0,6.49,0,.61,0,.84.16.84.8q0,10.23,0,20.45c0,.54-.13.78-.73.78-2.24,0-4.48,0-6.71,0-.8,0-.78-.4-.78-1C75,18.94,75,15.57,75,12.2Z"/><path class="cls-1" d="M229.33,12.28c0,3.37,0,6.74,0,10.11,0,.64-.11.9-.83.88-2.17,0-4.33,0-6.5,0-.65,0-.88-.15-.87-.85q0-10.17,0-20.34c0-.72.27-.84.9-.84q3.19.06,6.38,0c.73,0,.93.19.92.92C229.3,5.53,229.33,8.9,229.33,12.28Z"/><path class="cls-1" d="M89.2,0h1.21C92.2.07,92-.29,91.86,1.57c-.18,2.22-.45,4.43-.66,6.65-.06.63-.24.93-1,.93-2.86,0-2.86,0-3.19-2.83-.21-1.78-.36-3.56-.6-5.33-.1-.79.14-1,.92-1C88,.07,88.58,0,89.2,0Z"/><path class="cls-1" d="M164.47,22.18c-1.4-2.23-2.79-4.47-4.22-6.69a.75.75,0,0,1,.13-1.18,7.49,7.49,0,0,0,2.1-7.26c-.58-3.22-3-5.28-6.74-5.83-3.88-.57-7.76-.11-11.64,0-.56,0-.65.28-.65.76,0,6.85,0,13.7,0,20.55,0,.59.22.75.77.74,1.32,0,2.64,0,4,0,1.12,0,2.62.5,3.25-.24s.18-2.09.19-3.18,0-2.44,0-3.74c.59.21.66.6.82.91,1,1.84,1.93,3.7,2.91,5.54.16.3.23.72.72.71H165A1.81,1.81,0,0,0,164.47,22.18ZM154.26,9.43a2.27,2.27,0,0,1-2.29,1c-.35-.09-.36-.31-.36-.57V8.62a.81.81,0,0,1,0-.22c.13-.49-.34-1.24.35-1.44a1.93,1.93,0,0,1,2.1.62A1.58,1.58,0,0,1,154.26,9.43Z"/><path class="cls-1" d="M42.6,15.75c-.39-.61-.62-1.07.15-1.61a3.88,3.88,0,0,0,1-1.28c3-5,.14-10.72-5.75-11.63-3.91-.6-7.83-.12-11.75,0-.68,0-.63.44-.63.89,0,6.78,0,13.56,0,20.33,0,.62.16.85.8.83,1.32,0,2.64,0,4,0,1.1,0,2.56.38,3.19-.17s.2-2.13.23-3.25,0-2.44,0-3.66l.34-.08a29,29,0,0,1,2.07,4c.89,2.63,2.5,3.57,5.25,3.19a43.83,43.83,0,0,1,5.87,0C45.68,20.62,44.16,18.18,42.6,15.75Zm-6.36-6a2.25,2.25,0,0,1-2,.67c-.34,0-.43-.21-.42-.5V8.58a.54.54,0,0,1,0-.22c.14-.48-.37-1.23.38-1.41a1.94,1.94,0,0,1,2.21.85A1.51,1.51,0,0,1,36.24,9.73Z"/><path class="cls-1" d="M23.23,22.48c-2-6.84-4-13.69-6-20.54a.8.8,0,0,0-.91-.7q-4.61,0-9.23,0a.87.87,0,0,0-1,.75q-3,10.22-6,20.42c-.21.71,0,.87.69.86,2.2,0,4.4,0,6.6,0,1.63,0,1.63,0,1.93-1.55s.31-1.59,1.89-1.59c2.46,0,2.48,0,3,2.4.12.61.4.76,1,.75,1.25,0,2.5,0,3.74,0s2.5,0,3.74,0C23.21,23.28,23.43,23.18,23.23,22.48ZM12.07,15.1c-1.54.08-1.54.1-1.25-1.41.25-1.25.49-2.51.73-3.76l.19,0c.3,1.5.59,3,.9,4.51C12.75,15,12.53,15.07,12.07,15.1Z"/><path class="cls-1" d="M136.25,1.94A14.11,14.11,0,0,0,131,1c-2.94,0-5.87.13-8.8.22-.91,0-1.08.35-1.07,1.17,0,3.3,0,6.59,0,9.89s0,6.74,0,10.11c0,.73.21.94.92.92q3.2-.06,6.38,0c.66,0,.91-.17.89-.86,0-1.72,0-3.44,0-5.16,0-.8.13-1.11,1-1a14.12,14.12,0,0,0,3.84-.06,7.28,7.28,0,0,0,6.4-6.3C141,6.23,139.47,3.3,136.25,1.94Zm-6,8.46c-.92,0-.92,0-.92-1.85.28-.5-.66-1.73.95-1.65,1.35.07,2.19.7,2.18,1.77S131.56,10.4,130.22,10.4Z"/></g></g></svg>