<svg xmlns="http://www.w3.org/2000/svg" viewBox="0 0 8.89 6.26"><defs><style>.cls-1{fill:#e2e2e2;opacity:0.6;}</style></defs><g id="Capa_2" data-name="Capa 2"><g id="Capa_1-2" data-name="Capa 1"><path class="cls-1" d="M8.89.38A.36.36,0,0,0,8.5,0H.39A.35.35,0,0,0,0,.39V5.87a.36.36,0,0,0,.4.39H8.5a.36.36,0,0,0,.39-.39ZM7.58.71l0,.05L5.84,2.24c-.45.39-.9.78-1.34,1.18,0,0,0,0-.09,0L1.39.79,1.3.71ZM.71,5.13v-4s0,0,.05,0L2.4,2.6,3,3.09s0,.05,0,.08L.91,5Zm.59.42.13-.12L3.5,3.63s0,0,.08,0l.61.53a.36.36,0,0,0,.52,0l.61-.53s0,0,.08,0L7.54,5.51l0,0Zm6.88-.44s0,0,0,0L5.94,3.17s-.05,0,0-.07L8.14,1.17l0,0Z"/></g></g></svg>