<svg xmlns="http://www.w3.org/2000/svg" viewBox="0 0 112.64 112.64"><defs><style>.cls-1{fill:#fff;}.cls-2{fill:#bb2132;}</style></defs><g id="Capa_2" data-name="Capa 2"><g id="Capa_1-2" data-name="Capa 1"><circle class="cls-1" cx="56.32" cy="56.32" r="56.32"/><path class="cls-2" d="M25.84,30.88c.1,0,.16-.05.2-.1.4-.62,1-.61,1.64-.58a16.22,16.22,0,0,1,5.43,1.34,49.41,49.41,0,0,1,9.83,5.51,114.18,114.18,0,0,1,10.17,8.06c2.21,1.94,4.34,4,6.46,6,.26.25.37.29.6,0a12,12,0,0,0,2.1-7.14,7.92,7.92,0,0,1,3.26-6.66l6-4.69c2.09-1.63,4.18-3.25,6.25-4.9.34-.27.57-.22.78.08s.78.49.68.86-.52.54-.8.8l-9.19,8.64c-1.23,1.16-2.47,2.33-3.72,3.48-.22.2-.24.32,0,.53a10.87,10.87,0,0,1,1,1c.22.25.39.24.62,0,1-1,1.93-2,2.91-2.92l7.78-7.78c.8-.8,1.61-1.6,2.39-2.41.23-.24.36-.22.54,0l.06.07c.27.33.84.56.8.95s-.53.62-.82.91L68.34,44.31c-.2.2-.25.33,0,.52a3.82,3.82,0,0,1,.45.45c.6.57.61.58,1.22,0L81.32,33.93c.48-.48,1-1,1.43-1.45.22-.23.38-.2.59,0,.88.84.87.83,0,1.7Q77.11,40.4,70.9,46.61c-.27.27-.24.42,0,.65a8.87,8.87,0,0,1,.91.93c.28.32.46.2.68,0C74,46.59,75.44,45,76.9,43.49l5.66-6c.85-.9,1.71-1.81,2.55-2.73.19-.2.31-.22.5,0a7.94,7.94,0,0,0,.81.83c.2.16.21.27,0,.46l-3.82,4.83c-1.53,1.92-3,3.86-4.58,5.76a28.44,28.44,0,0,1-2.46,3,7.5,7.5,0,0,1-5.19,2.07,12.32,12.32,0,0,0-5.91,1.46,14.46,14.46,0,0,0-3.67,3,.56.56,0,0,0-.1.5,5.9,5.9,0,0,0,2.14,3.79,10.78,10.78,0,0,0,3.2,2,1.09,1.09,0,0,1,.4.27L79.16,75.52c.62.63,1.26,1.26,1.84,1.93a3,3,0,0,1-.19,4.31,3.07,3.07,0,0,1-4.3-.05c-2.5-2.46-5-4.94-7.46-7.42l-5.73-5.72q-3.23-3.21-6.43-6.45c-.26-.26-.37-.24-.6,0q-5.24,5.25-10.5,10.49l-9.73,9.74a3.17,3.17,0,0,1-4.31.21,3.09,3.09,0,0,1-.52-4.09,15.94,15.94,0,0,1,1.7-1.79L38.63,71l6.06-6.07,6.74-6.75c.25-.25.67-.45.67-.77s-.42-.51-.65-.75c-1.83-1.85-3.68-3.68-5.51-5.53L35.46,40.62,26.1,31.25c-.07-.07-.11-.21-.26-.18Z"/></g></g></svg>