<svg xmlns="http://www.w3.org/2000/svg" viewBox="0 0 112.64 112.64"><defs><style>.cls-1{fill:#fff;}.cls-2{fill:#bb2132;}</style></defs><g id="Capa_2" data-name="Capa 2"><g id="Capa_1-2" data-name="Capa 1"><circle class="cls-1" cx="56.32" cy="56.32" r="56.32"/><path class="cls-2" d="M55.87,62.76c-.91,0-1.82,0-2.73,0-.7,0-1-.16-1-.89-.38-4.86,1.58-8.62,5.36-11.54a17.19,17.19,0,0,1,3.13-1.9,4.69,4.69,0,0,0,2.76-4,11.59,11.59,0,0,0-.21-4.69,5.38,5.38,0,0,0-3.62-3.78,9.83,9.83,0,0,0-6.78.3,5.1,5.1,0,0,0-2.86,3.3,11.46,11.46,0,0,0-.6,3.72c0,.48-.06.77-.66.78-2.1,0-4.2.05-6.3.11-.53,0-.65-.18-.64-.67C41.8,36.94,45,30.14,54.18,29.31a19.87,19.87,0,0,1,7.9.69c5.17,1.65,7.84,5.42,8.86,10.59,1,5-.84,8.84-4.65,11.92A40.5,40.5,0,0,1,63,55a6.94,6.94,0,0,0-3.44,6.72c0,.85-.18,1.19-1.08,1.1S56.75,62.76,55.87,62.76Z"/><path class="cls-2" d="M33.55,45.06c2.68,0,5.12,1.81,6.84,4.79a7.74,7.74,0,0,1-.23,8.52A29,29,0,0,1,38.36,61a4.59,4.59,0,0,0-.81,4.81c.25.64.16,1-.57,1.17a32.91,32.91,0,0,0-3.19,1c-.56.21-.8.06-1-.47a8.5,8.5,0,0,1,.83-8,13.5,13.5,0,0,1,1.93-2.34,3,3,0,0,0,.89-3c0-.2-.07-.41-.12-.61-1.15-4.89-4.67-4.88-7.81-3-1.64,1-2.15,2.64-1.51,5,.25,1,.13,1.35-.86,1.59a23.17,23.17,0,0,0-3.07,1.05c-.48.19-.68.08-.82-.41-1.17-4.07-.48-8.51,4.05-11A14.92,14.92,0,0,1,33.55,45.06Z"/><path class="cls-2" d="M82.73,48.07a12,12,0,0,1,8.79,5.22c3.33,5,.22,12.16-5.67,13.27a24.93,24.93,0,0,1-2.59.41A4.8,4.8,0,0,0,78.9,69.9c-.26.57-.52.68-1.09.33a28,28,0,0,0-3-1.56c-.67-.3-.66-.64-.39-1.21A8.74,8.74,0,0,1,82,62.39l.74,0a5,5,0,0,0,5.2-4.5,3.63,3.63,0,0,0-.1-1.76c-.68-2.1-2.43-2.87-4.32-3.4-1.67-.46-2.92.3-4,1.5-.09.11-.17.23-.26.33-.46.46-.53,1.41-1.18,1.46s-1.12-.49-1.69-.77l-1.49-.76c-1.3-.65-1.3-.65-.55-1.82A9.23,9.23,0,0,1,82.73,48.07Z"/><path class="cls-2" d="M59.55,72.27c0,1,0,2,0,3,0,.45-.14.62-.6.62-2.06,0-4.13,0-6.19,0-.53,0-.64-.23-.63-.7,0-2,0-4.06,0-6.08,0-.52.16-.66.66-.66q3,0,6.09,0c.57,0,.7.22.69.75C59.52,70.24,59.54,71.25,59.55,72.27Z"/><path class="cls-2" d="M38.42,70.49c.57-.17.64,0,.71.23.42,1.32.83,2.66,1.31,4,.16.45-.14.47-.38.55-1.25.42-2.52.81-3.77,1.25-.41.14-.57,0-.68-.35-.4-1.26-.81-2.52-1.22-3.78-.08-.24-.2-.47.15-.58Z"/><path class="cls-2" d="M76.62,74.19c-.46.89-.92,1.75-1.38,2.62-.86,1.64-.86,1.64-2.49.78-.71-.37-1.4-.78-2.13-1.12-.5-.23-.7-.43-.37-1,.62-1,1.16-2.15,1.72-3.24.18-.34.31-.58.78-.32,1.16.65,2.35,1.24,3.52,1.86C76.45,73.86,76.69,73.92,76.62,74.19Z"/></g></g></svg>