<svg xmlns="http://www.w3.org/2000/svg" viewBox="0 0 112.64 112.64"><defs><style>.cls-1{fill:#fff;}.cls-2{fill:#bb2132;}</style></defs><g id="Capa_2" data-name="Capa 2"><g id="Capa_1-2" data-name="Capa 1"><circle class="cls-1" cx="56.32" cy="56.32" r="56.32"/><path class="cls-2" d="M83.41,62.37c-2-10.43-7.92-18-17.13-23-1.06-.59-1.07-.58-.24-1.44l8.88-9.18c.22-.23.61-.38.31-.9-1.14-1.93-4.37-3.94-7.14-2.05-.64.44-1.28.88-1.94,1.27a4.49,4.49,0,0,1-5.31-.11c-1-.7-1.84-1.48-2.77-2.21-2.3-1.77-3.65-1.83-6-.21-1.18.79-2.29,1.67-3.44,2.49a3.73,3.73,0,0,1-4.77-.1,13.52,13.52,0,0,0-2.1-1.41,5.17,5.17,0,0,0-7.05,2.36,1.12,1.12,0,0,0,.26,1.41c3,3.19,5.89,6.42,8.87,9.6.53.56.46.75-.16,1.13A30.17,30.17,0,0,0,33.06,50.52C29.37,56.87,28.28,63.78,29,71c.77,8.38,5.09,14.08,13.12,16.86a44.12,44.12,0,0,0,15,2,44.72,44.72,0,0,0,13.35-2c5-1.73,9.17-4.6,11.5-9.56S84.42,67.77,83.41,62.37Zm-16.73,9.5a7.29,7.29,0,0,1-4.26,6.41,9.43,9.43,0,0,1-3,.89c-.72.07-1,.34-.88,1.06s-.11,1-.85.9a19.62,19.62,0,0,0-2,0c-1.4,0-1.43,0-1.53-1.4,0-.47-.27-.53-.62-.62-3.67-.9-6.19-3.28-8.16-6.37-.32-.5-.17-.67.25-.92.88-.5,1.76-1,2.59-1.59.5-.34.71-.19,1,.27a9.22,9.22,0,0,0,4.94,4.14c0-2.52,0-5,0-7.42,0-.51-.38-.48-.67-.58a17.11,17.11,0,0,1-3.91-1.86A7.08,7.08,0,0,1,46.26,57c.58-2.82,2.66-4.66,6-5.27.61-.12,1.48,0,1.78-.4s.14-1.23.09-1.86.11-.9.81-.85c1,.06,2,0,2.94,0,.5,0,.74.1.71.67a4.43,4.43,0,0,0,.08,2.19c.33.58,1.33.45,2,.71a10.5,10.5,0,0,1,5.77,5.53c.25.54.25.81-.45.94a29.45,29.45,0,0,0-3,.81c-.41.13-.57.06-.74-.35a5.15,5.15,0,0,0-3.66-2.93c0,2.32,0,4.51,0,6.71,0,.53.25.66.69.79a16.17,16.17,0,0,1,4.15,1.82A6.43,6.43,0,0,1,66.68,71.87Z"/><path class="cls-2" d="M60.8,69a7.94,7.94,0,0,0-2.19-.9,2,2,0,0,0-.06.27c0,1.52,0,3,0,4.54,0,.62-.32,1.56.16,1.78s1.38-.29,2-.65a3.34,3.34,0,0,0,.48-.36A2.71,2.71,0,0,0,60.8,69Z"/><path class="cls-2" d="M53.05,56c-1.24.33-2.29.88-2.52,2.29a2.8,2.8,0,0,0,1.58,2.92,5.42,5.42,0,0,0,2,.88c0-1.83-.07-3.56,0-5.28C54.2,55.8,53.78,55.79,53.05,56Z"/></g></g></svg>