<svg xmlns="http://www.w3.org/2000/svg" viewBox="0 0 112.64 112.64"><defs><style>.cls-1{fill:#fff;}.cls-2{fill:#bb2132;}</style></defs><g id="Capa_2" data-name="Capa 2"><g id="Capa_1-2" data-name="Capa 1"><circle class="cls-1" cx="56.32" cy="56.32" r="56.32"/><path class="cls-2" d="M55.92,23.77A32.49,32.49,0,1,0,88.34,56.35,32.47,32.47,0,0,0,55.92,23.77Zm-.07,59.74A27.25,27.25,0,1,1,83.1,56.27,27.3,27.3,0,0,1,55.85,83.51Z"/><path class="cls-2" d="M69.87,63q-5.34-3.82-10.7-7.63A1.46,1.46,0,0,1,58.46,54c0-5.3,0-10.59,0-15.89,0-1.82-1.06-3-2.65-3s-2.6,1.19-2.61,3V47c0,3,0,6,0,8.94a2.77,2.77,0,0,0,1.15,2.46q6.29,4.5,12.59,9a2.54,2.54,0,0,0,1.89.47,2.52,2.52,0,0,0,2.18-2A2.57,2.57,0,0,0,69.87,63Z"/></g></g></svg>