<svg xmlns="http://www.w3.org/2000/svg" viewBox="0 0 8.46 9.06"><defs><style>.cls-1{fill:#e2e2e2;opacity:0.6;}</style></defs><g id="Capa_2" data-name="Capa 2"><g id="Capa_1-2" data-name="Capa 1"><path class="cls-1" d="M6,9.06A3.86,3.86,0,0,1,3.7,8.3,9.75,9.75,0,0,1,.37,4.37a3.6,3.6,0,0,1-.3-2.28A2.72,2.72,0,0,1,1.05.5L1.44.17a.61.61,0,0,1,.88,0,1.78,1.78,0,0,1,.37.45,5.2,5.2,0,0,1,.59,1A.91.91,0,0,1,3,2.81a4.35,4.35,0,0,1-.41.34.77.77,0,0,0-.3,1,3.87,3.87,0,0,0,.53.9A6.4,6.4,0,0,0,4.15,6.44a1.52,1.52,0,0,0,.51.25.65.65,0,0,0,.68-.19l.44-.41A.89.89,0,0,1,7,6,4.39,4.39,0,0,1,8.27,7.05a.61.61,0,0,1-.1,1,4.1,4.1,0,0,1-1.11.82A2.9,2.9,0,0,1,6,9.06Z"/></g></g></svg>